# xmcd CD database file
#
# Track frame offsets:
#	150
#	17933
#	42189
#	76578
#	95590
#	121414
#	142810
#	165156
#	192647
#
# Disc length: 2924 seconds
#
# Revision: 0
# Processed by: cddbd v1.5PL3 Copyright (c) Steve Scherf et al.
# Submitted via: CDex 1.50
#
DISCID=680b6a09
DTITLE=Enigma - Love Sensuality Devotion (remix collection)
DYEAR=2002
DGENRE=New Age
TTITLE0=Turn around
TTITLE1=Age of loneliness
TTITLE2=Push the limits
TTITLE3=Gravity of Love
TTITLE4=Return to innocence
TTITLE5=Sadeness (part I)
TTITLE6=Principles of lust
TTITLE7=Mea Culpa
TTITLE8=TNT for the brain
EXTD=YEAR: 2002
EXTT0=
EXTT1=
EXTT2=
EXTT3=
EXTT4=
EXTT5=
EXTT6=
EXTT7=
EXTT8=
PLAYORDER=
